<?xml version="1.0" standalone="no"?>
<!DOCTYPE svg PUBLIC "-//W3C//DTD SVG 20010904//EN"
 "http://www.w3.org/TR/2001/REC-SVG-20010904/DTD/svg10.dtd">
<svg version="1.0" xmlns="http://www.w3.org/2000/svg"
 width="230.000000pt" height="230.000000pt" viewBox="0 0 230.000000 230.000000"
 preserveAspectRatio="xMidYMid meet">
<metadata>
Created by potrace 1.11, written by Peter Selinger 2001-2013
</metadata>
<g transform="translate(0.000000,230.000000) scale(0.100000,-0.100000)"
fill="#000000" stroke="none">
<path d="M870 2156 c-135 -72 -362 -194 -505 -270 -143 -76 -265 -142 -272
-147 -8 -7 -11 -161 -10 -592 l2 -582 70 -38 c39 -21 134 -72 213 -113 l142
-75 0 224 0 224 303 161 c166 88 307 162 314 164 11 3 593 -303 593 -312 0 -3
-132 -75 -293 -160 l-292 -155 -3 -238 c-1 -130 0 -237 4 -237 3 0 239 125
525 277 l519 277 0 241 0 240 -506 270 c-279 149 -514 274 -524 278 -13 7 -97
-34 -326 -156 l-309 -165 -3 100 c-1 56 1 105 5 109 4 4 145 80 312 169 l303
162 47 -25 c309 -166 973 -518 985 -523 14 -6 16 19 16 234 l0 240 -518 276
c-285 152 -525 276 -533 275 -8 -1 -124 -60 -259 -133z"/>
</g>
</svg>
